<?xml version="1.0" standalone="no"?><!DOCTYPE svg PUBLIC "-//W3C//DTD SVG 1.1//EN" "http://www.w3.org/Graphics/SVG/1.1/DTD/svg11.dtd"><svg t="1683638427297" class="icon" viewBox="0 0 1024 1024" version="1.1" xmlns="http://www.w3.org/2000/svg" p-id="5838" xmlns:xlink="http://www.w3.org/1999/xlink" width="24" height="24"><path d="M0.0005 941.61208A82.38792 82.38792 0 0 0 82.38842 1024h858.979161a82.38792 82.38792 0 0 0 82.387919-82.38792V363.433645H0.0005z m694.691322-429.48958h73.124928a36.562964 36.562964 0 0 1 0 73.124928h-73.124928a36.562964 36.562964 0 0 1 0-73.124928z m-219.376786 0h73.125928a36.562964 36.562964 0 0 1 0 73.124928h-73.125928a36.562964 36.562964 0 0 1 0-73.124928z m0 221.813783h73.125928a36.562964 36.562964 0 0 1 0 73.124929h-73.125928a36.562964 36.562964 0 0 1 0-73.124929zM255.94025 512.1225h73.125929a36.562964 36.562964 0 0 1 0 73.124928h-73.125929a36.562964 36.562964 0 0 1 0-73.124928z m0 221.813783h73.125929a36.562964 36.562964 0 0 1 0 73.124929h-73.125929a36.562964 36.562964 0 0 1 0-73.124929z m767.81625-578.178435a82.38792 82.38792 0 0 0-82.387919-82.38792H804.379714V41.19496a40.94996 40.94996 0 0 0-82.387919 0v32.174968H301.764205V41.19496a40.94996 40.94996 0 0 0-82.387919 0v32.174968H82.38842A82.38792 82.38792 0 0 0 0.0005 155.757848V283.970723h1023.755z" fill="#5c78ff" p-id="5839"></path></svg>